HIERARCHY
ROOT Hips
{
	OFFSET 0.000000 8.830580 0.000000
	CHANNELS 6 Xposition Yposition Zposition Zrotation Yrotation Xrotation 
	JOINT Spine
	{
		OFFSET 0.000000 0.010000 0.000000
		CHANNELS 3 Zrotation Yrotation Xrotation
		JOINT Spine1
		{
			OFFSET 0.000000 2.459130 0.000000
			CHANNELS 3 Zrotation Yrotation Xrotation
			JOINT Neck
			{
				OFFSET 0.000000 2.484630 0.000000
				CHANNELS 3 Zrotation Yrotation Xrotation
				JOINT Head_virtual
				{
					OFFSET 0.000000 0.000000 0.000000
					CHANNELS 3 Zrotation Yrotation Xrotation
					JOINT Head
					{
						OFFSET 0.000000 0.927525 0.000000
						CHANNELS 3 Zrotation Yrotation Xrotation
						End Site
						{
							OFFSET 0.000000 0.000000 0.000000
						}
					}
				}
				JOINT LeftUpArm_virtual
				{
					OFFSET 0.000000 0.000000 0.000000
					CHANNELS 3 Zrotation Yrotation Xrotation
					JOINT LeftUpArm
					{
						OFFSET 1.248820 0.000000 0.000000
						CHANNELS 3 Zrotation Yrotation Xrotation
						JOINT LeftForeArm
						{
							OFFSET 2.597580 0.000000 0.000000
							CHANNELS 3 Zrotation Yrotation Xrotation
							JOINT LeftHand
							{
								OFFSET 2.455420 0.000000 0.000000
								CHANNELS 3 Zrotation Yrotation Xrotation
								End Site
								{
									OFFSET 0.000000 0.000000 0.000000
								}
							}
						}
					}
				}
				JOINT RightUpArm_virtual
				{
					OFFSET -0.000000 -0.000000 -0.000000
					CHANNELS 3 Zrotation Yrotation Xrotation
					JOINT RightUpArm
					{
						OFFSET -1.248820 -0.000000 -0.000000
						CHANNELS 3 Zrotation Yrotation Xrotation
						JOINT RightForeArm
						{
							OFFSET -2.597580 -0.000000 -0.000000
							CHANNELS 3 Zrotation Yrotation Xrotation
							JOINT RightHand
							{
								OFFSET -2.455420 -0.000000 -0.000000
								CHANNELS 3 Zrotation Yrotation Xrotation
								End Site
								{
									OFFSET 0.000000 0.000000 0.000000
								}
							}
						}
					}
				}
			}
		}
	}
	JOINT LeftUpLeg
	{
		OFFSET 1.271939 0.000000 0.000000
		CHANNELS 3 Zrotation Yrotation Xrotation
		JOINT LeftLowLeg
		{
			OFFSET 0.000000 -4.342910 0.000000
			CHANNELS 3 Zrotation Yrotation Xrotation
			JOINT LeftFoot
			{
				OFFSET 0.000000 -4.487670 0.000000
				CHANNELS 3 Zrotation Yrotation Xrotation
				JOINT LeftToeBase
				{
					OFFSET 0.000000 0.000000 1.515070
					CHANNELS 3 Zrotation Yrotation Xrotation
					End Site
					{
						OFFSET 0.000000 0.000000 0.000000
					}
				}
			}
		}
	}
	JOINT RightUpLeg
	{
		OFFSET -1.271939 0.000000 0.000000
		CHANNELS 3 Zrotation Yrotation Xrotation
		JOINT RightLowLeg
		{
			OFFSET 0.000000 -4.342910 0.000000
			CHANNELS 3 Zrotation Yrotation Xrotation
			JOINT RightFoot
			{
				OFFSET 0.000000 -4.487670 0.000000
				CHANNELS 3 Zrotation Yrotation Xrotation
				JOINT RightToeBase
				{
					OFFSET 0.000000 0.000000 1.515070
					CHANNELS 3 Zrotation Yrotation Xrotation
					End Site
					{
						OFFSET 0.000000 0.000000 0.000000
					}
				}
			}
		}
	}
}
MOTION
Frames: 8
Frame Time: 0.041667
-20.608604 3.978917 40.609504 -171.695416 -9.146441 -150.152842 16.545434 8.893008 70.161546 22.228754 0.034722 -8.590301 0.000000 0.000000 0.000000 19.866064 -42.585068 -32.537109 11.789004 43.688498 -102.602268 -24.154100 -35.798100 16.481300 54.209099 -49.294300 -76.974098 -180.000000 -35.957993 180.000000 110.238998 -38.938301 -13.022300 8.531820 17.388800 10.431100 -51.503799 50.919998 -75.532204 -180.000000 35.451004 -180.000000 -113.874001 40.074600 -5.000630 13.136094 -6.505779 -66.613388 0.000000 0.000000 144.024002 2.114693 -0.696511 -12.864467 0.000000 0.000000 -73.458801 2.169090 4.678058 -59.560669 0.000000 0.000000 134.167007 15.294561 39.129118 -10.480624 0.000000 0.000000 -60.598301 
-20.618141 3.987047 40.592166 -171.598274 -8.930617 -149.951599 16.421182 8.125415 70.260597 20.946892 -0.078132 -9.083519 0.000000 0.000000 0.000000 19.057551 -42.718403 -31.261551 12.069515 43.957617 -102.970159 -23.172501 -35.194401 14.753800 52.548302 -50.568401 -74.548798 180.000000 -35.459000 -180.000000 111.046997 -39.649899 -11.557100 9.299410 18.070299 12.343700 -51.912800 50.047199 -74.774200 -180.000000 36.225998 180.000000 -115.477997 38.447498 -8.457190 12.914529 -6.285137 -66.492574 0.000000 0.000000 143.916000 1.596863 -0.878039 -12.876038 0.000000 0.000000 -72.869598 2.446927 4.619473 -59.497174 0.000000 0.000000 134.013000 16.198893 38.924262 -10.309957 0.000000 0.000000 -60.898899 
-20.624151 3.991497 40.579027 -171.637587 -8.628617 -149.681846 15.781062 6.782415 70.235453 19.035701 -1.001997 -9.724171 0.000000 0.000000 0.000000 17.201267 -42.184211 -29.231457 12.544085 44.602326 -103.585422 -21.371000 -33.906601 12.315500 48.226700 -51.525700 -69.706200 180.000000 -35.000000 180.000000 111.164001 -40.089401 -10.927300 10.185800 19.944300 12.334400 -49.750702 51.535301 -71.164597 -180.000000 37.205002 -180.000000 -116.783997 37.197899 -10.714400 12.648170 -6.018709 -66.457894 0.000000 0.000000 143.800995 0.967460 -1.290549 -13.047968 0.000000 0.000000 -72.694901 2.679956 4.501799 -59.567263 0.000000 0.000000 134.042007 16.661765 38.224614 -10.566892 0.000000 0.000000 -61.117699 
-20.630470 3.994135 40.569514 -171.750192 -8.320314 -149.469174 15.345428 5.941862 70.159960 17.646928 -1.672502 -9.938977 0.000000 0.000000 0.000000 17.247323 -41.218254 -29.586288 12.698571 44.872830 -103.458383 -19.659201 -32.968300 9.606430 44.541901 -52.901299 -65.394203 180.000000 -35.207001 -180.000000 110.831001 -39.630501 -11.150500 10.706300 20.826000 12.203100 -48.515202 52.751900 -69.204803 -180.000000 38.179001 -180.000000 -117.557999 36.625900 -12.009500 12.357469 -5.830611 -66.456070 0.000000 0.000000 143.725006 -0.218848 -2.240381 -13.452777 0.000000 0.000000 -72.557499 2.897282 4.326861 -59.613747 0.000000 0.000000 134.095993 16.020924 37.477810 -11.936945 0.000000 0.000000 -60.404499 
-20.635371 3.995571 40.561546 -171.948565 -8.021467 -149.209497 13.469839 2.076993 70.237507 13.577392 -4.486561 -11.880132 0.000000 0.000000 0.000000 8.411828 -39.115188 -22.123285 16.175731 46.337386 -104.414072 -17.751301 -29.492701 8.603460 37.410999 -50.618401 -58.270599 180.000000 -34.580994 -180.000000 111.089996 -37.770199 -12.104900 15.354900 28.620199 17.114300 -45.662601 50.610401 -65.225601 180.000000 38.860992 180.000000 -117.691002 36.477798 -10.424800 12.019829 -5.665526 -66.444961 0.000000 0.000000 143.636002 -1.282232 -3.197517 -14.376563 0.000000 0.000000 -70.913799 3.190824 4.005460 -59.732051 0.000000 0.000000 134.192001 14.946159 36.656420 -13.702008 0.000000 0.000000 -59.371899 
-20.625130 3.975979 40.579811 -172.292216 -7.320270 -146.196460 12.258869 1.617583 66.490435 11.461048 -6.400656 -10.519008 0.000000 0.000000 0.000000 9.018299 -36.510878 -24.206419 17.047689 46.385801 -102.844809 -15.514700 -26.400600 9.203060 38.539398 -49.892700 -59.837101 180.000000 -35.240005 -180.000000 110.551002 -35.919701 -11.826500 16.384100 31.123301 17.390600 -45.029598 51.073799 -64.861801 -180.000000 39.281998 -180.000000 -116.561996 36.406399 -8.789950 11.775708 -4.535655 -69.456388 0.000000 0.000000 143.886993 -2.543162 -4.523928 -15.611772 0.000000 0.000000 -69.821999 3.283726 4.043967 -63.128988 0.000000 0.000000 134.921005 13.614756 35.181157 -15.542336 0.000000 0.000000 -59.125301 
-20.627599 3.884981 40.640011 -173.649153 -6.511921 -136.107414 10.185272 -0.314126 53.169649 6.010154 -9.943677 -5.604576 0.000000 0.000000 0.000000 9.690530 -31.550806 -26.974983 18.445257 46.657166 -99.959035 -10.794400 -20.813000 7.853060 39.250999 -50.115898 -61.954201 -180.000000 -35.779007 180.000000 110.614998 -34.354301 -11.000600 18.212400 35.703999 17.024099 -44.514801 52.213299 -64.878098 180.000000 39.912994 180.000000 -115.640999 36.598400 -8.361720 10.579752 -2.743233 -80.199369 0.000000 0.000000 145.072998 -3.261064 -5.002584 -16.464593 0.000000 0.000000 -68.995701 1.898417 3.618710 -74.382801 0.000000 0.000000 137.412003 11.246859 32.748637 -17.539768 0.000000 0.000000 -58.553501 
-20.625278 3.918608 40.616614 -173.039141 -6.503152 -141.221864 10.584075 -0.808120 59.790186 6.424560 -9.572301 -7.811660 0.000000 0.000000 0.000000 10.305121 -31.654077 -27.766568 18.685142 46.536787 -99.994905 -11.981700 -20.602501 10.316800 40.974499 -49.033199 -63.802101 180.000000 -36.766006 180.000000 110.456001 -34.514198 -11.655400 18.933201 35.287300 18.351200 -45.233002 51.812000 -65.258598 180.000000 40.154999 -180.000000 -114.889999 36.308498 -7.267920 10.684485 -3.163789 -74.761855 0.000000 0.000000 144.563004 -4.435797 -6.123490 -17.655520 0.000000 0.000000 -68.756100 3.909186 3.365155 -68.708281 0.000000 0.000000 136.677002 10.595219 30.886288 -19.507607 0.000000 0.000000 -56.615398 
